<svg width="486" height="484" viewBox="0 0 486 484" fill="none" xmlns="http://www.w3.org/2000/svg">
<g clip-path="url(#clip0_113_2)">
<path d="M454.315 199.098H374.574C372.828 199.103 371.104 198.71 369.533 197.949C367.962 197.187 366.586 196.078 365.508 194.704C364.411 193.318 363.645 191.699 363.268 189.972C362.89 188.245 362.912 186.454 363.332 184.736C370.681 153.953 370.681 121.872 363.331 91.0894C362.912 89.3719 362.89 87.5814 363.268 85.8542C363.645 84.127 364.411 82.5086 365.508 81.1221C366.585 79.7485 367.962 78.6388 369.533 77.8775C371.104 77.1161 372.828 76.7232 374.574 76.7286H454.315C457.069 76.7365 459.729 77.7214 461.824 79.5079C463.919 81.2944 465.312 83.7666 465.754 86.4839C471.002 120.569 471.002 155.257 465.754 189.342C465.312 192.06 463.919 194.532 461.824 196.318C459.729 198.105 457.069 199.09 454.315 199.098Z" fill="#E6E6E6"/>
<path d="M374.574 82.7285C373.735 82.7257 372.908 82.9142 372.153 83.2795C371.398 83.6449 370.737 84.1775 370.219 84.8369C369.686 85.5126 369.314 86.3009 369.132 87.1419C368.949 87.983 368.961 88.8546 369.166 89.6905C376.735 121.393 376.735 154.433 369.166 186.136C368.961 186.971 368.949 187.843 369.132 188.684C369.314 189.525 369.686 190.313 370.219 190.988C370.737 191.648 371.398 192.181 372.153 192.547C372.907 192.912 373.735 193.101 374.574 193.098H454.315C455.637 193.098 456.917 192.629 457.926 191.775C458.935 190.92 459.607 189.735 459.824 188.431C464.979 154.95 464.979 120.877 459.824 87.3955C459.607 86.0913 458.935 84.9063 457.926 84.0516C456.917 83.1969 455.637 82.7281 454.315 82.7285L374.574 82.7285Z" fill="white"/>
<path d="M321.816 230.369H242.074C240.253 230.375 238.454 229.965 236.815 229.17C235.176 228.376 233.74 227.218 232.616 225.785C231.472 224.339 230.673 222.652 230.279 220.851C229.886 219.049 229.909 217.182 230.346 215.391C237.677 184.685 237.677 152.684 230.345 121.978C229.908 120.187 229.886 118.32 230.279 116.518C230.673 114.717 231.472 113.03 232.616 111.584C233.74 110.151 235.176 108.993 236.815 108.199C238.454 107.405 240.253 106.995 242.074 107H321.816C324.688 107.009 327.464 108.037 329.649 109.901C331.835 111.765 333.287 114.344 333.749 117.179C339.004 151.315 339.004 186.054 333.749 220.19C333.287 223.025 331.835 225.604 329.649 227.469C327.464 229.333 324.688 230.361 321.816 230.369Z" fill="#F2F2F2"/>
<path d="M436.914 126.579H395.069C393.478 126.577 391.953 125.944 390.828 124.819C389.704 123.695 389.071 122.169 389.069 120.579V118.234C389.071 116.643 389.704 115.118 390.828 113.994C391.953 112.869 393.478 112.236 395.069 112.234H436.914C438.505 112.236 440.03 112.869 441.155 113.994C442.279 115.118 442.912 116.643 442.914 118.234V120.579C442.912 122.17 442.279 123.695 441.155 124.819C440.03 125.944 438.505 126.577 436.914 126.579Z" fill="#E6E6E6"/>
<path d="M436.914 156.204H395.069C393.478 156.202 391.953 155.569 390.828 154.444C389.704 153.32 389.071 151.794 389.069 150.204V147.859C389.071 146.268 389.704 144.743 390.828 143.619C391.953 142.494 393.478 141.861 395.069 141.859H436.914C438.505 141.861 440.03 142.494 441.155 143.619C442.279 144.743 442.912 146.268 442.914 147.859V150.204C442.912 151.794 442.279 153.32 441.155 154.444C440.03 155.569 438.505 156.202 436.914 156.204Z" fill="#E6E6E6"/>
<path d="M282.168 191.271C294.87 191.271 305.168 180.974 305.168 168.271C305.168 155.569 294.87 145.271 282.168 145.271C269.465 145.271 259.168 155.569 259.168 168.271C259.168 180.974 269.465 191.271 282.168 191.271Z" fill="white"/>
<path d="M293 165H285V157C285 156.204 284.684 155.441 284.121 154.879C283.559 154.316 282.796 154 282 154C281.204 154 280.441 154.316 279.879 154.879C279.316 155.441 279 156.204 279 157V165H271C270.204 165 269.441 165.316 268.879 165.879C268.316 166.441 268 167.204 268 168C268 168.796 268.316 169.559 268.879 170.121C269.441 170.684 270.204 171 271 171H279V179C279 179.796 279.316 180.559 279.879 181.121C280.441 181.684 281.204 182 282 182C282.796 182 283.559 181.684 284.121 181.121C284.684 180.559 285 179.796 285 179V171H293C293.796 171 294.559 170.684 295.121 170.121C295.684 169.559 296 168.796 296 168C296 167.204 295.684 166.441 295.121 165.879C294.559 165.316 293.796 165 293 165Z" fill="#E6E6E6"/>
<path d="M436.668 89H394.668C393.475 88.9987 392.331 88.5241 391.487 87.6805C390.643 86.8369 390.169 85.6931 390.168 84.5V76.5C390.169 75.3069 390.643 74.1631 391.487 73.3195C392.331 72.4759 393.475 72.0013 394.668 72H436.668C437.861 72.0013 439.004 72.4759 439.848 73.3195C440.692 74.1631 441.166 75.3069 441.168 76.5V84.5C441.166 85.6931 440.692 86.8369 439.848 87.6805C439.004 88.5241 437.861 88.9987 436.668 89Z" fill="#CCCCCC"/>
<path d="M88.596 471.061H100.856L104.689 423.773H88.594L88.596 471.061Z" fill="#FFB8B8"/>
<path d="M85.4692 467.058L109.613 467.057H109.614C111.635 467.057 113.635 467.455 115.502 468.228C117.369 469.001 119.065 470.134 120.494 471.563C121.923 472.992 123.056 474.688 123.829 476.555C124.603 478.422 125.001 480.422 125 482.443V482.943L85.47 482.944L85.4692 467.058Z" fill="#2F2E41"/>
<path d="M22.596 471.061H34.856L40.689 423.773H22.594L22.596 471.061Z" fill="#FFB8B8"/>
<path d="M19.4692 467.058L43.613 467.057H43.614C45.6346 467.057 47.6354 467.455 49.5022 468.228C51.3689 469.001 53.0651 470.134 54.4939 471.563C55.9227 472.992 57.056 474.688 57.8293 476.555C58.6025 478.422 59.0005 480.422 59.0005 482.443V482.943L19.47 482.944L19.4692 467.058Z" fill="#2F2E41"/>
<path d="M24.7712 456.124C23.5206 456.123 22.3159 455.653 21.3962 454.805C20.9026 454.355 20.505 453.809 20.2273 453.202C19.9497 452.594 19.7977 451.936 19.7805 451.268L14.8639 275.055L84.675 292.507L106.215 357.125C108.992 365.437 110.195 374.195 109.76 382.949L107.085 445.585C107.024 446.869 106.471 448.079 105.541 448.965C104.611 449.851 103.376 450.345 102.091 450.344H90.382C89.1735 450.339 88.0072 449.899 87.0971 449.104C86.187 448.308 85.5941 447.212 85.4272 446.015L77.0583 376.873C76.327 371.479 74.4401 366.307 71.5266 361.709L55.0571 335.633C54.947 335.459 54.7857 335.323 54.5954 335.244C54.4051 335.165 54.195 335.146 53.9939 335.191C53.7928 335.236 53.6105 335.342 53.4719 335.495C53.3332 335.647 53.2451 335.839 53.2194 336.043L40.2949 451.131C40.1561 452.299 39.61 453.38 38.7526 454.184C37.8953 454.988 36.7816 455.464 35.6079 455.528L25.0559 456.115C24.9609 456.12 24.8662 456.124 24.7712 456.124Z" fill="#2F2E41"/>
<path d="M73.0577 160.968C86.6224 160.968 97.6187 149.971 97.6187 136.407C97.6187 122.842 86.6224 111.846 73.0577 111.846C59.493 111.846 48.4966 122.842 48.4966 136.407C48.4966 149.971 59.493 160.968 73.0577 160.968Z" fill="#FFB8B8"/>
<path d="M84.3406 299.672C83.9179 299.671 83.497 299.618 83.0876 299.513L13.8226 281.753C12.5842 281.436 11.5144 280.657 10.8331 279.575C10.1518 278.493 9.91083 277.192 10.1597 275.938L26.0668 190.247C27.0579 185.294 29.2363 180.655 32.4151 176.729C35.5938 172.803 39.6779 169.707 44.3166 167.707C48.8365 165.707 53.7793 164.85 58.7088 165.212C63.6383 165.574 68.403 167.143 72.5822 169.782C73.552 170.387 74.5288 171.047 75.4848 171.743C79.3337 174.583 82.4725 178.275 84.6549 182.531C86.8373 186.787 88.0041 191.49 88.0637 196.273L89.3286 294.601C89.3371 295.263 89.2145 295.919 88.9678 296.533C88.7212 297.146 88.3554 297.705 87.8916 298.177C87.4278 298.648 86.8752 299.023 86.2657 299.28C85.6562 299.536 85.0019 299.67 84.3406 299.672Z" fill="#5C8374"/>
<path d="M20.9493 300.68C20.1231 299.464 19.5734 298.082 19.3392 296.631C19.105 295.179 19.1918 293.694 19.5936 292.28C19.9953 290.866 20.7023 289.557 21.6646 288.446C22.6269 287.335 23.8212 286.448 25.1633 285.848L22.0825 250.246L38.4085 259.095L38.8312 291.546C39.6894 293.868 39.6664 296.423 38.7662 298.729C37.8661 301.034 36.1515 302.93 33.9474 304.056C31.7432 305.182 29.2026 305.46 26.807 304.838C24.4114 304.216 22.3271 302.736 20.9493 300.68Z" fill="#FFB8B8"/>
<path d="M26.782 281.139C26.3213 281.138 25.8625 281.08 25.4162 280.966C24.4564 280.721 23.5805 280.222 22.8813 279.52C22.1822 278.818 21.6856 277.94 21.4443 276.98L13.4211 245.096C10.6172 233.96 11.9539 222.185 17.1824 211.961L33.9912 179.079C35.0537 175.142 37.6211 171.781 41.1395 169.72C44.658 167.658 48.8456 167.063 52.7993 168.061C54.7699 168.558 56.6222 169.442 58.2486 170.661C59.8751 171.88 61.2434 173.41 62.2742 175.161C63.3262 176.938 64.0142 178.906 64.2982 180.952C64.5821 182.997 64.4564 185.078 63.9282 187.074L40.0007 240.58L40.2849 272.616C40.2923 273.746 39.9524 274.851 39.3114 275.782C38.6703 276.713 37.759 277.424 36.7004 277.82L28.6931 280.794C28.0817 281.022 27.4345 281.139 26.782 281.139Z" fill="#5C8374"/>
<path d="M141.318 287.585C139.857 287.418 138.451 286.933 137.198 286.164C135.945 285.395 134.876 284.36 134.067 283.133C133.257 281.906 132.726 280.517 132.512 279.062C132.297 277.608 132.404 276.124 132.825 274.716L103.831 253.826L121.188 247.225L146.06 268.074C148.379 268.937 150.301 270.622 151.461 272.808C152.622 274.995 152.94 277.53 152.355 279.936C151.771 282.341 150.324 284.448 148.29 285.858C146.256 287.268 143.775 287.882 141.318 287.585Z" fill="#FFB8B8"/>
<path d="M126.14 272.331C125.285 272.331 124.442 272.132 123.677 271.75L94.2781 257.032C84.0094 251.893 75.9567 243.199 71.6174 232.567L57.6601 198.377C55.3697 195.003 54.4968 190.864 55.2296 186.853C55.9625 182.841 58.2424 179.278 61.5779 176.932C63.2444 175.761 65.1275 174.932 67.1173 174.495C69.1072 174.059 71.1641 174.023 73.1682 174.389C75.1958 174.753 77.1308 175.517 78.8613 176.635C80.5917 177.752 82.0831 179.203 83.249 180.901L108.194 233.941L132.66 254.623C133.521 255.355 134.137 256.333 134.425 257.426C134.712 258.519 134.657 259.674 134.267 260.735L131.297 268.743C130.909 269.794 130.209 270.7 129.29 271.34C128.366 271.985 127.267 272.331 126.14 272.331Z" fill="#5C8374"/>
<path d="M67.9002 161.344C69.2052 161.915 71.8775 151.516 70.6804 149.437C68.9002 146.344 69.0054 146.366 67.8236 144.32C66.6418 142.273 66.3774 139.472 67.9078 137.672C69.4382 135.872 72.9798 136.11 73.6782 138.368C73.2289 134.08 77.4701 130.633 81.6712 129.665C85.8723 128.696 90.3036 129.297 94.5279 128.436C99.4303 127.435 104.531 123.326 102.575 117.935C102.239 117.037 101.737 116.211 101.094 115.501C98.8341 112.96 95.6728 111.875 92.582 110.826C86.152 108.643 79.546 106.433 72.7599 106.674C67.1685 106.967 61.7836 108.883 57.2642 112.188C52.7447 115.493 49.2868 120.044 47.3136 125.284C46.8459 126.594 46.4836 127.94 46.2301 129.309C43.9009 141.833 51.1738 154.187 62.9863 158.956L67.9002 161.344Z" fill="#2F2E41"/>
<path opacity="0.2" d="M38.9 273.344L39.457 240.415L56.9 205.344L42.9 241.344L38.9 273.344Z" fill="black"/>
<path d="M197.077 355.983L123.439 325.388C121.825 324.723 120.384 323.699 119.225 322.393C118.066 321.087 117.221 319.534 116.753 317.852C116.272 316.151 116.185 314.362 116.499 312.622C116.814 310.883 117.521 309.237 118.567 307.812C137.165 282.205 149.474 252.579 154.498 221.332C154.77 219.585 155.437 217.924 156.448 216.473C157.459 215.023 158.787 213.823 160.332 212.963C161.854 212.108 163.551 211.611 165.294 211.511C167.037 211.411 168.78 211.709 170.39 212.384L244.028 242.98C246.568 244.043 248.647 245.974 249.896 248.427C251.145 250.881 251.483 253.698 250.849 256.377C242.617 289.868 229.308 321.901 211.384 351.364C209.933 353.703 207.698 355.452 205.078 356.298C202.458 357.144 199.623 357.032 197.077 355.983Z" fill="#E6E6E6"/>
<path d="M168.088 217.923C167.315 217.599 166.478 217.455 165.641 217.503C164.804 217.551 163.989 217.789 163.258 218.199C162.506 218.619 161.86 219.204 161.369 219.911C160.877 220.617 160.554 221.427 160.422 222.277C155.248 254.458 142.572 284.969 123.418 311.341C122.908 312.034 122.563 312.834 122.409 313.681C122.255 314.528 122.296 315.398 122.529 316.226C122.754 317.034 123.16 317.78 123.717 318.407C124.273 319.034 124.966 319.526 125.741 319.845L199.379 350.441C200.6 350.948 201.962 351.006 203.221 350.604C204.481 350.202 205.556 349.366 206.257 348.245C223.864 319.304 236.937 287.839 245.023 254.942C245.323 253.655 245.156 252.302 244.553 251.126C243.949 249.949 242.947 249.026 241.726 248.519L168.088 217.923Z" fill="white"/>
<path d="M207.297 286.032L168.655 269.977C167.186 269.365 166.021 268.196 165.414 266.725C164.807 265.255 164.807 263.604 165.416 262.134L166.316 259.969C166.928 258.501 168.097 257.335 169.567 256.728C171.038 256.121 172.689 256.122 174.158 256.731L212.801 272.786C214.269 273.398 215.435 274.567 216.042 276.037C216.649 277.508 216.648 279.159 216.039 280.628L215.14 282.794C214.528 284.262 213.358 285.428 211.888 286.035C210.418 286.642 208.767 286.641 207.297 286.032Z" fill="#5C8374"/>
<path d="M195.93 313.39L157.288 297.334C155.819 296.722 154.654 295.553 154.047 294.083C153.44 292.613 153.441 290.961 154.049 289.492L154.949 287.327C155.561 285.858 156.73 284.693 158.2 284.086C159.671 283.478 161.322 283.479 162.791 284.088L201.434 300.143C202.902 300.755 204.068 301.925 204.675 303.395C205.282 304.865 205.281 306.516 204.672 307.986L203.773 310.151C203.161 311.619 201.992 312.785 200.521 313.392C199.051 313.999 197.4 313.998 195.93 313.39Z" fill="#5C8374"/>
<path d="M222.781 247.581C222.203 247.581 221.63 247.469 221.094 247.251L182.156 231.508C181.05 231.06 180.168 230.191 179.702 229.093C179.236 227.995 179.225 226.756 179.671 225.65L182.669 218.233C183.117 217.126 183.985 216.243 185.084 215.777C186.183 215.311 187.422 215.301 188.528 215.748L227.466 231.491C228.572 231.939 229.454 232.808 229.92 233.906C230.386 235.004 230.397 236.242 229.951 237.349L226.953 244.766C226.616 245.597 226.039 246.308 225.296 246.81C224.553 247.311 223.678 247.58 222.781 247.581Z" fill="#CCCCCC"/>
<path d="M141 483.5H0.999992C0.734776 483.5 0.480436 483.395 0.2929 483.207C0.105364 483.02 -7.62939e-06 482.765 -7.62939e-06 482.5C-7.62939e-06 482.235 0.105364 481.98 0.2929 481.793C0.480436 481.605 0.734776 481.5 0.999992 481.5H141C141.265 481.5 141.52 481.605 141.707 481.793C141.895 481.98 142 482.235 142 482.5C142 482.765 141.895 483.02 141.707 483.207C141.52 483.395 141.265 483.5 141 483.5Z" fill="#CCCCCC"/>
</g>
<defs>
<clipPath id="clip0_113_2">
<rect width="485.834" height="483.5" fill="white"/>
</clipPath>
</defs>
</svg>
